<svg width="48" height="48" viewBox="0 0 48 48" fill="none" xmlns="http://www.w3.org/2000/svg">
<circle cx="24" cy="24" r="24" fill="#FAF9F6"/>
<path d="M3.37646 36.2822C6.29803 41.1767 10.913 44.9433 16.413 46.7743C17.6137 46.9939 18.0513 46.2528 18.0513 45.6163C18.0513 45.3528 18.0469 44.8872 18.041 44.2641C18.0341 43.5425 18.0252 42.6097 18.0189 41.5351C11.3432 42.9849 9.93468 38.3174 9.93468 38.3174C8.84293 35.546 7.2694 34.8079 7.2694 34.8079C5.09033 33.3183 7.43442 33.3478 7.43442 33.3478C9.84333 33.5187 11.1104 35.8215 11.1104 35.8215C13.2512 39.4887 16.7283 38.4293 18.0955 37.8164C18.3136 36.265 18.9324 35.2071 19.619 34.6075C14.2899 34.0019 8.68676 31.9422 8.68676 22.7456C8.68676 20.126 9.62233 17.9838 11.1576 16.3056C10.91 15.6986 10.0864 13.2588 11.3918 9.95405C11.3918 9.95405 13.4073 9.30873 17.9924 12.4145C19.9063 11.8827 21.9601 11.616 24.0007 11.6071C26.0383 11.616 28.0921 11.8827 30.009 12.4145C34.591 9.30873 36.6022 9.95405 36.6022 9.95405C37.912 13.2588 37.0884 15.6986 36.8408 16.3056C38.379 17.9838 39.3087 20.126 39.3087 22.7456C39.3087 31.9658 33.6967 33.9946 28.35 34.5883C29.2119 35.3294 29.9795 36.7939 29.9795 39.0334C29.9795 41.1785 29.9663 43.0468 29.9576 44.2844C29.9533 44.8974 29.95 45.3557 29.95 45.6163C29.95 46.2587 30.3817 47.0056 31.6002 46.7714C35.9815 45.3089 39.8008 42.6187 42.6486 39.1086C38.2484 44.5332 31.529 48.0002 23.9999 48.0002C15.2335 48.0002 7.56483 43.3 3.37646 36.2822Z" fill="#033E1F"/>
</svg>
