<svg width="48" height="48" viewBox="0 0 48 48" fill="none" xmlns="http://www.w3.org/2000/svg">
<circle cx="24" cy="24" r="24" fill="#FAF9F6"/>
<path fill-rule="evenodd" clip-rule="evenodd" d="M16.5297 12.3408C16.5297 13.8349 15.3921 15.044 13.613 15.044C11.9033 15.044 10.7656 13.8349 10.8008 12.3408C10.7656 10.774 11.9032 9.6001 13.6471 9.6001C15.3921 9.6001 16.4956 10.774 16.5297 12.3408ZM10.9439 34.583V17.1796H16.3526V34.5819H10.9439V34.583Z" fill="#033E1F"/>
<path fill-rule="evenodd" clip-rule="evenodd" d="M20.6877 22.7333C20.6877 20.5626 20.6162 18.712 20.5447 17.1816H25.2427L25.4924 19.5658H25.5991C26.311 18.4623 28.0901 16.791 30.9727 16.791C34.5308 16.791 37.2 19.14 37.2 24.2627V34.585H31.7912V24.9404C31.7912 22.697 31.009 21.1677 29.0517 21.1677C27.5564 21.1677 26.6675 22.1997 26.3121 23.1954C26.1691 23.5519 26.0986 24.0492 26.0986 24.5487V34.585H20.6899V22.7333H20.6877Z" fill="#033E1F"/>
</svg>
