<svg width="48" height="48" viewBox="0 0 48 48" fill="none" xmlns="http://www.w3.org/2000/svg">
<circle cx="24" cy="24" r="24" fill="#FAF9F6"/>
<path fill-rule="evenodd" clip-rule="evenodd" d="M38.4001 14.7704C37.3413 15.2407 36.2018 15.5575 35.0067 15.7005C36.2268 14.9691 37.1637 13.8114 37.6043 12.432C36.4639 13.1097 35.1978 13.6002 33.8529 13.8661C32.7749 12.718 31.238 12 29.5399 12C26.2771 12 23.6315 14.6456 23.6315 17.9084C23.6315 18.3711 23.6843 18.8223 23.7851 19.2552C18.874 19.0095 14.5207 16.6566 11.6064 13.0818C11.0976 13.9544 10.8067 14.9691 10.8067 16.0519C10.8067 18.1014 11.8483 19.9099 13.435 20.9697C12.4655 20.9389 11.5555 20.673 10.7578 20.2305V20.3044C10.7578 23.1679 12.7957 25.5553 15.497 26.0995C15.0017 26.2339 14.4795 26.3069 13.9409 26.3069C13.5598 26.3069 13.1893 26.2694 12.8284 26.2003C13.58 28.5474 15.7629 30.2561 18.348 30.3041C16.3264 31.888 13.7787 32.8335 11.0102 32.8335C10.5322 32.8335 10.0618 32.8056 9.6001 32.75C12.215 34.426 15.3204 35.4052 18.6571 35.4052C29.5245 35.4052 35.4675 26.4019 35.4675 18.5948C35.4675 18.3385 35.4627 18.0831 35.4502 17.8307C36.606 16.9955 37.6082 15.9549 38.4001 14.7704Z" fill="#033E1F"/>
</svg>
